<svg width="190" height="48" viewBox="0 0 190 48" fill="none" xmlns="http://www.w3.org/2000/svg">
<g clip-path="url(#clip0_38_2)">
<path d="M21.8141 18.7997C20.0008 16.9245 17.7002 14.5696 15.9091 13.2838C11.815 10.3436 4.34228 10.0123 1.43016 15.9684C1.26943 16.3517 1.12189 16.7465 0.990832 17.1545C0.332703 19.3753 -0.000456351 21.6796 0.00171957 23.9959C0.00171957 37.2508 10.7468 47.9959 24.0017 47.9959C37.4372 47.9959 48.0017 37.067 48.0017 23.9959C48.0066 20.4753 47.234 16.9971 45.7391 13.8097C46.5724 16.0733 46.6186 18.5516 45.8702 20.8447C45.1219 23.1378 43.6227 25.1118 41.6147 26.4482C39.6066 27.7846 37.2068 28.4054 34.8026 28.2103C32.3984 28.0153 30.1301 27.0158 28.3637 25.3732C29.4185 27.9532 29.5469 30.8189 28.727 33.4829C27.9072 36.1469 26.1898 38.4446 23.867 39.9852C21.5441 41.5257 18.7593 42.214 15.9862 41.9329C13.2132 41.6518 10.6231 40.4187 8.65669 38.4433C6.69025 36.468 5.46887 33.8724 5.20031 31.0981C4.93175 28.3238 5.6326 25.5421 7.18365 23.2262C8.73469 20.9104 11.0401 19.2034 13.7078 18.3956C16.3755 17.5878 19.2406 17.7292 21.8158 18.7956L21.8141 18.7997Z" fill="url(#paint0_radial_38_2)"/>
<path d="M21.814 18.7997C20.0006 16.9245 17.7001 14.5696 15.909 13.2838C11.8149 10.3436 4.34217 10.0123 1.43006 15.9684C1.26932 16.3517 1.12178 16.7465 0.990723 17.1545C1.16052 16.7858 1.34351 16.4303 1.53968 16.0879C4.95872 10.8126 11.9567 11.9757 15.4755 15.2093C16.2387 15.9099 17.0902 16.8726 17.9367 17.9046C19.2689 17.9852 20.5782 18.2878 21.8107 18.7997H21.814ZM47.606 28.3315C48.507 23.4157 47.8539 18.3412 45.7374 13.8138C46.5706 16.0774 46.6168 18.5557 45.8685 20.8488C45.1202 23.1419 43.621 25.116 41.6129 26.4523C39.6049 27.7887 37.2051 28.4095 34.8009 28.2145C32.3967 28.0194 30.1283 27.0199 28.362 25.3773C28.9552 26.8274 29.2595 28.3794 29.2579 29.9462C29.2579 30.3287 29.239 30.707 29.2043 31.0804C35.7589 35.3896 43.8358 32.7157 47.606 28.3315Z" fill="#01052D"/>
<path d="M24 0.000823975C13.1197 0.000823975 3.93663 7.23536 0.990723 17.1553C1.12178 16.7432 1.26932 16.3525 1.43006 15.9692C4.34217 10.0131 11.8157 10.3445 15.909 13.2846C18.3818 15.0584 21.8289 18.8673 23.6043 20.6428L28.1814 25.2075C29.9255 26.9029 32.1936 27.9555 34.6143 28.193C37.0349 28.4305 39.4644 27.8388 41.5047 26.5148C43.545 25.1908 45.0751 23.2131 45.8442 20.9057C46.6134 18.5982 46.576 16.098 45.7382 13.8146C41.9062 5.65196 33.6133 0.000823975 24 0.000823975Z" fill="url(#paint1_radial_38_2)"/>
<path d="M13.1116 27.5946C13.1118 26.2107 13.5085 24.8558 14.2548 23.6903C15.0012 22.5249 16.0659 21.5977 17.3228 21.0186C18.5798 20.4395 19.9763 20.2328 21.3472 20.4228C22.718 20.6129 24.0056 21.1918 25.0576 22.091L23.6045 20.642C23.1165 20.1532 22.5008 19.5111 21.8142 18.7997C19.2396 17.7338 16.3753 17.5926 13.7084 18.4002C11.0415 19.2078 8.73666 20.9143 7.18597 23.2295C5.63529 25.5446 4.93448 28.3255 5.20275 31.099C5.47102 33.8726 6.6918 36.4676 8.65745 38.4427C10.6231 40.4177 13.2122 41.6509 15.9845 41.9324C18.7567 42.2139 21.5409 41.5263 23.8635 39.9867C26.186 38.4471 27.9035 36.1504 28.7238 33.4874C29.5441 30.8244 29.4166 27.9594 28.3629 25.3798C28.3019 25.3229 28.2409 25.2652 28.1816 25.2067L28.0876 25.1127L25.8465 22.8773C26.6066 23.7632 27.1413 24.8196 27.405 25.9567C27.6688 27.0938 27.6536 28.2778 27.361 29.4077C27.0683 30.5377 26.5068 31.5802 25.7243 32.4463C24.9418 33.3124 23.9615 33.9765 22.8669 34.3819C21.7723 34.7874 20.5959 34.9222 19.438 34.7749C18.2801 34.6275 17.175 34.2024 16.2168 33.5358C15.2587 32.8691 14.4759 31.9807 13.9352 30.9462C13.3945 29.9117 13.112 28.7618 13.1116 27.5946Z" fill="url(#paint2_linear_38_2)"/>
<path d="M21.8141 18.7997C19.3454 17.7775 16.6069 17.6044 14.0291 18.3077C11.4513 19.011 9.18015 20.5507 7.57253 22.6851C5.96491 24.8194 5.11191 27.4273 5.14756 30.0991C5.1832 32.7709 6.10546 35.3552 7.76945 37.4458C9.43343 39.5365 11.7448 41.0151 14.3405 41.6494C16.9362 42.2836 19.669 42.0376 22.1096 40.9499C24.5503 39.8622 26.5604 37.9944 27.8241 35.6402C29.0879 33.2859 29.5337 30.5785 29.0915 27.9433C29.1212 28.2642 29.1361 28.5892 29.1361 28.9184C29.1346 31.1667 28.4211 33.3568 27.0979 35.1744C25.7747 36.9921 23.9097 38.344 21.7706 39.0361C19.6315 39.7282 17.3281 39.725 15.1909 39.027C13.0537 38.3289 11.1925 36.9718 9.87439 35.1505C8.55623 33.3291 7.84883 31.1371 7.85366 28.8888C7.8585 26.6405 8.57532 24.4515 9.9013 22.6358C11.2273 20.8201 13.0943 19.4711 15.2345 18.7822C17.3746 18.0934 19.678 18.1001 21.8141 18.8014V18.7997Z" fill="#01052D"/>
<path d="M19.8728 20.3699C20.0319 20.3601 20.191 20.3543 20.3526 20.3543C22.0781 20.3517 23.7474 20.9678 25.0574 22.091L23.6043 20.642C23.1163 20.1532 22.5006 19.5111 21.814 18.7997C20.5815 18.2878 19.2721 17.9852 17.9399 17.9046C18.5993 18.714 19.2645 19.5671 19.8761 20.3699H19.8728ZM29.2043 31.0804C29.2389 30.707 29.2579 30.3287 29.2579 29.9462C29.2594 28.3803 28.9554 26.8292 28.3627 25.3798C28.3017 25.3229 28.2407 25.2652 28.1814 25.2067L28.0874 25.1127L25.8463 22.8773C26.6269 23.788 27.1695 24.878 27.4256 26.0498C27.6816 27.2215 27.6431 28.4385 27.3134 29.5918C27.9015 30.1394 28.534 30.6373 29.2043 31.0804Z" fill="#01052D"/>
</g>
<path d="M70.456 30.104L72.664 18.2H78.904C79.032 18.888 79.096 19.376 79.096 19.664C78.328 19.936 77.664 20.144 77.104 20.288L78.808 32.696L80.464 32.912C80.464 33.568 80.28 34.264 79.912 35H74.08L73.864 33.68C74.76 33.312 75.432 33.08 75.88 32.984L74.032 23.192L71.584 33.824H69.136L65.344 22.088L63.304 32.696L64.96 32.912C64.96 33.568 64.776 34.264 64.408 35H58.576L58.36 33.68C59.256 33.312 59.928 33.08 60.376 32.984L62.08 20.288L60.088 19.664L60.28 18.2H67L70.216 30.104H70.456ZM87.0563 22.712C87.3603 22.712 87.5523 22.72 87.6323 22.736C87.6323 23.52 87.4963 24.248 87.2243 24.92C87.1603 28.376 87.1203 30.968 87.1043 32.696L88.9763 32.912C88.9763 33.568 88.7923 34.264 88.4243 35H82.4483L82.2323 33.68C83.2243 33.312 83.9443 33.072 84.3923 32.96L84.1283 25.184C83.1843 25.088 82.4883 24.968 82.0403 24.824C82.0403 24.424 82.0963 23.848 82.2083 23.096C83.1523 22.84 84.7683 22.712 87.0563 22.712ZM87.0563 18.176C87.2003 18.896 87.2723 19.448 87.2723 19.832C87.2723 20.2 87.2403 20.616 87.1763 21.08C86.5363 21.224 85.9923 21.296 85.5443 21.296C85.1123 21.296 84.5843 21.272 83.9603 21.224C83.8163 20.504 83.7443 19.96 83.7443 19.592C83.7443 19.208 83.7763 18.784 83.8403 18.32C84.4803 18.176 85.0163 18.104 85.4483 18.104C85.8963 18.104 86.4323 18.128 87.0563 18.176ZM97.4391 22.52C99.0391 22.52 100.199 22.912 100.919 23.696C101.639 24.48 101.999 25.576 101.999 26.984C101.999 28.392 101.919 30.296 101.759 32.696L103.655 32.912C103.655 33.568 103.471 34.264 103.103 35H97.1271L96.9111 33.68C97.6631 33.376 98.3591 33.136 98.9991 32.96C98.9511 31.12 98.9031 29.576 98.8551 28.328C98.8071 27.064 98.6871 26.208 98.4951 25.76C98.3031 25.312 97.8791 25.088 97.2231 25.088C96.2311 25.088 95.3431 25.264 94.5591 25.616C94.5431 26.304 94.4951 27.432 94.4151 29C94.3511 30.552 94.3111 31.784 94.2951 32.696L96.1671 32.912C96.1671 33.568 95.9831 34.264 95.6151 35H89.6391L89.4231 33.68C90.2231 33.376 90.9431 33.136 91.5831 32.96C91.5671 32 91.5111 30.672 91.4151 28.976C91.3351 27.28 91.2871 26.024 91.2711 25.208C90.6791 25.144 90.0471 25.024 89.3751 24.848L89.4951 23.12C90.6151 22.816 91.8791 22.664 93.2871 22.664C93.4631 22.776 93.7031 23.12 94.0071 23.696C94.5511 23.424 95.2151 23.16 95.9991 22.904C96.7831 22.648 97.2631 22.52 97.4391 22.52ZM114.988 17.168C115.292 17.168 115.484 17.176 115.564 17.192C115.564 18.024 115.46 18.752 115.252 19.376C115.188 21.104 115.108 23.568 115.012 26.768C114.932 29.952 114.876 32.056 114.844 33.08C115.788 33.208 116.492 33.344 116.956 33.488V34.64C115.948 35.072 114.564 35.288 112.804 35.288C112.708 35.112 112.58 34.68 112.42 33.992C110.948 34.792 109.884 35.224 109.228 35.288C107.596 35.288 106.372 34.696 105.556 33.512C104.756 32.328 104.356 30.808 104.356 28.952C104.356 27.08 104.764 25.512 105.58 24.248C106.396 22.968 107.604 22.328 109.204 22.328C110.084 22.328 111.012 22.6 111.988 23.144L111.868 19.64C111.116 19.56 110.484 19.44 109.972 19.28C109.972 18.88 110.028 18.304 110.14 17.552C111.084 17.296 112.7 17.168 114.988 17.168ZM109.588 24.68C108.212 24.68 107.524 26.008 107.524 28.664C107.524 30.184 107.796 31.328 108.34 32.096C108.644 32.544 109.036 32.768 109.516 32.768C110.332 32.768 111.252 32.488 112.276 31.928L112.06 25.736C111.148 25.032 110.324 24.68 109.588 24.68ZM129.519 30.104L131.727 18.2H137.967C138.095 18.888 138.159 19.376 138.159 19.664C137.391 19.936 136.727 20.144 136.167 20.288L137.871 32.696L139.527 32.912C139.527 33.568 139.343 34.264 138.975 35H133.143L132.927 33.68C133.823 33.312 134.495 33.08 134.943 32.984L133.095 23.192L130.647 33.824H128.199L124.407 22.088L122.367 32.696L124.023 32.912C124.023 33.568 123.839 34.264 123.471 35H117.639L117.423 33.68C118.319 33.312 118.991 33.08 119.439 32.984L121.143 20.288L119.151 19.664L119.343 18.2H126.063L129.279 30.104H129.519ZM145.639 35.288C144.279 35.288 143.223 35.008 142.471 34.448C141.735 33.888 141.367 32.944 141.367 31.616C141.367 30.352 141.807 29.32 142.687 28.52C143.199 28.056 143.911 27.784 144.823 27.704C145.735 27.624 146.991 27.584 148.591 27.584V27.2C148.591 26.224 148.431 25.512 148.111 25.064C147.807 24.6 147.263 24.368 146.479 24.368C146.079 24.368 145.719 24.448 145.399 24.608L144.823 26.696L143.047 26.648C142.647 26.04 142.431 25.072 142.399 23.744C142.719 23.584 143.471 23.344 144.655 23.024C145.839 22.688 146.599 22.52 146.935 22.52C148.663 22.52 149.919 22.88 150.703 23.6C151.487 24.304 151.879 25.432 151.879 26.984C151.879 28.52 151.807 30.552 151.663 33.08C152.575 33.16 153.279 33.296 153.775 33.488C153.791 33.68 153.799 33.912 153.799 34.184L153.775 34.712C152.623 35.096 151.463 35.288 150.295 35.288C149.991 35.288 149.767 35.28 149.623 35.264C149.383 34.784 149.239 34.208 149.191 33.536H149.071C148.767 33.824 148.231 34.192 147.463 34.64C146.711 35.072 146.103 35.288 145.639 35.288ZM144.439 31.76C144.439 32.288 144.599 32.68 144.919 32.936C145.255 33.176 145.631 33.296 146.047 33.296C146.463 33.296 146.959 33.112 147.535 32.744C148.111 32.36 148.575 32.016 148.927 31.712L148.807 29.504C147.543 29.568 146.591 29.688 145.951 29.864C144.943 30.072 144.439 30.704 144.439 31.76ZM161.72 35.288C160.792 35.288 159.816 34.984 158.792 34.376C158.76 36.072 158.744 37.352 158.744 38.216L160.616 38.432C160.616 39.136 160.432 39.832 160.064 40.52H154.088L153.872 39.2C154.896 38.816 155.616 38.576 156.032 38.48L155.576 25.16C154.824 25.096 154.192 24.976 153.68 24.8C153.68 24.208 153.736 23.632 153.848 23.072C154.52 22.928 156.008 22.8 158.312 22.688C158.44 22.896 158.584 23.248 158.744 23.744C160.408 22.928 161.504 22.52 162.032 22.52C163.616 22.52 164.792 23.08 165.56 24.2C166.328 25.304 166.712 26.792 166.712 28.664C166.712 30.536 166.28 32.112 165.416 33.392C164.568 34.656 163.336 35.288 161.72 35.288ZM158.936 25.856L158.84 31.928C159.208 32.264 159.64 32.56 160.136 32.816C160.648 33.056 161.08 33.176 161.432 33.176C162.84 33.176 163.544 31.824 163.544 29.12C163.544 28.112 163.44 27.304 163.232 26.696C163.04 26.088 162.808 25.664 162.536 25.424C162.28 25.168 161.976 25.04 161.624 25.04C160.92 25.04 160.024 25.312 158.936 25.856ZM173.433 32.936C173.977 32.936 175.081 32.56 176.745 31.808C177.097 32.32 177.361 32.912 177.537 33.584C176.657 34.128 175.793 34.552 174.945 34.856C174.113 35.144 173.521 35.288 173.169 35.288C171.233 35.288 169.761 34.752 168.753 33.68C167.761 32.608 167.265 31.088 167.265 29.12C167.265 27.136 167.761 25.544 168.753 24.344C169.745 23.128 171.217 22.52 173.169 22.52C174.721 22.52 175.905 23.024 176.721 24.032C177.537 25.04 177.945 26.352 177.945 27.968C177.945 28.304 177.753 28.688 177.369 29.12L170.457 29C170.489 30.28 170.729 31.256 171.177 31.928C171.625 32.6 172.377 32.936 173.433 32.936ZM172.953 24.512C172.345 24.512 171.777 24.632 171.249 24.872C170.881 25.64 170.649 26.352 170.553 27.008C171.801 26.96 173.217 26.928 174.801 26.912C174.721 25.312 174.105 24.512 172.953 24.512ZM188.162 23.552L188.186 24.296C188.186 25.544 188.09 26.36 187.898 26.744C187.37 26.936 186.634 27.032 185.69 27.032L184.922 24.608C184.714 24.528 184.426 24.488 184.058 24.488C183.69 24.488 183.386 24.6 183.146 24.824C182.922 25.048 182.81 25.312 182.81 25.616C182.81 25.92 182.93 26.2 183.17 26.456C183.41 26.696 183.658 26.888 183.914 27.032C184.17 27.176 184.538 27.368 185.018 27.608C185.514 27.832 185.882 28.008 186.122 28.136C186.378 28.264 186.698 28.456 187.082 28.712C187.482 28.968 187.786 29.208 187.994 29.432C188.506 30.04 188.762 30.704 188.762 31.424C188.762 32.656 188.29 33.608 187.346 34.28C186.418 34.952 185.274 35.288 183.914 35.288C183.194 35.288 182.402 35.16 181.538 34.904C180.69 34.648 179.97 34.304 179.378 33.872C179.378 32.72 179.49 31.648 179.714 30.656C180.354 30.576 180.874 30.536 181.274 30.536C181.674 30.536 181.946 30.544 182.09 30.56L182.378 32.888C182.778 33.032 183.258 33.104 183.818 33.104C184.378 33.104 184.818 32.992 185.138 32.768C185.474 32.544 185.642 32.232 185.642 31.832C185.642 31.416 185.458 31.072 185.09 30.8C184.722 30.528 184.218 30.248 183.578 29.96C182.938 29.656 182.442 29.408 182.09 29.216C181.738 29.008 181.362 28.744 180.962 28.424C180.146 27.8 179.738 27.032 179.738 26.12C179.738 24.984 180.13 24.104 180.914 23.48C181.714 22.84 182.786 22.52 184.13 22.52C185.474 22.52 186.818 22.864 188.162 23.552Z" fill="#080808"/>
<defs>
<radialGradient id="paint0_radial_38_2" cx="0" cy="0" r="1" gradientUnits="userSpaceOnUse" gradientTransform="translate(3.68603 46.3175) rotate(-50.766) scale(41.004 41.004)">
<stop stop-color="#5EFAF7"/>
<stop offset="0.46" stop-color="#1A85F8"/>
<stop offset="1" stop-color="#020C6A"/>
</radialGradient>
<radialGradient id="paint1_radial_38_2" cx="0" cy="0" r="1" gradientUnits="userSpaceOnUse" gradientTransform="translate(19.0635 22.8733) rotate(-40.7636) scale(30.5434 30.1007)">
<stop stop-color="#5EFAF7"/>
<stop offset="0.46" stop-color="#1A85F8"/>
<stop offset="1" stop-color="#020C6A"/>
</radialGradient>
<linearGradient id="paint2_linear_38_2" x1="26.5174" y1="20.7458" x2="-22.1947" y2="68.8175" gradientUnits="userSpaceOnUse">
<stop stop-color="#01052D"/>
<stop offset="0.54" stop-color="#0049E7"/>
<stop offset="1" stop-color="#5EFAF7"/>
</linearGradient>
<clipPath id="clip0_38_2">
<rect width="48" height="48" fill="white"/>
</clipPath>
</defs>
</svg>
